HIERARCHY
ROOT __0
{
	OFFSET 0.0 0.0 0.0
	CHANNELS 0
	JOINT Becken
	{
		OFFSET 0.000000 -0.405722 0.211570
		CHANNELS 6 Xposition Yposition Zposition Xrotation Yrotation Zrotation
		JOINT Bauch
		{
			OFFSET -0.000000 -0.017287 -0.099054
			CHANNELS 6 Xposition Yposition Zposition Xrotation Yrotation Zrotation
			JOINT Bauch.001
			{
				OFFSET -0.000000 -0.003352 -0.108138
				CHANNELS 6 Xposition Yposition Zposition Xrotation Yrotation Zrotation
				JOINT Brust
				{
					OFFSET -0.000000 -0.007714 -0.106705
					CHANNELS 6 Xposition Yposition Zposition Xrotation Yrotation Zrotation
					JOINT Hals
					{
						OFFSET -0.000000 0.015220 -0.138891
						CHANNELS 6 Xposition Yposition Zposition Xrotation Yrotation Zrotation
						JOINT Kopf.002
						{
							OFFSET 0.000000 -0.145080 -0.063334
							CHANNELS 6 Xposition Yposition Zposition Xrotation Yrotation Zrotation
							JOINT Kopf
							{
								OFFSET 0.000000 0.101110 0.009737
								CHANNELS 6 Xposition Yposition Zposition Xrotation Yrotation Zrotation
								JOINT Unterkiefer
								{
									OFFSET -0.000407 0.019282 -0.073044
									CHANNELS 6 Xposition Yposition Zposition Xrotation Yrotation Zrotation
									JOINT Hals_fett
									{
										OFFSET 0.000407 0.030854 -0.009642
										CHANNELS 6 Xposition Yposition Zposition Xrotation Yrotation Zrotation
										End Site
										{
											OFFSET 0.000000 0.012835 0.000000
										}
									}
									JOINT Maulunten
									{
										OFFSET 0.000407 -0.001227 -0.014618
										CHANNELS 6 Xposition Yposition Zposition Xrotation Yrotation Zrotation
										End Site
										{
											OFFSET 0.000000 0.012835 0.000000
										}
									}
								}
								JOINT Mauloben
								{
									OFFSET -0.000000 0.010422 -0.098884
									CHANNELS 6 Xposition Yposition Zposition Xrotation Yrotation Zrotation
									End Site
									{
										OFFSET 0.000000 0.012835 0.000000
									}
								}
								JOINT MundW_L
								{
									OFFSET 0.036228 0.015181 -0.075523
									CHANNELS 6 Xposition Yposition Zposition Xrotation Yrotation Zrotation
									End Site
									{
										OFFSET 0.000000 0.012835 0.000000
									}
								}
								JOINT MundW_R
								{
									OFFSET -0.036228 0.015181 -0.075523
									CHANNELS 6 Xposition Yposition Zposition Xrotation Yrotation Zrotation
									End Site
									{
										OFFSET 0.000000 0.012835 0.000000
									}
								}
								JOINT Aug_R
								{
									OFFSET -0.022119 -0.040634 -0.095681
									CHANNELS 6 Xposition Yposition Zposition Xrotation Yrotation Zrotation
									End Site
									{
										OFFSET 0.000000 0.012835 0.000000
									}
								}
								JOINT aug_L
								{
									OFFSET 0.022119 -0.040634 -0.095681
									CHANNELS 6 Xposition Yposition Zposition Xrotation Yrotation Zrotation
									End Site
									{
										OFFSET 0.000000 0.012835 0.000000
									}
								}
								JOINT Ohr_L
								{
									OFFSET 0.036475 -0.085229 -0.040037
									CHANNELS 6 Xposition Yposition Zposition Xrotation Yrotation Zrotation
									End Site
									{
										OFFSET 0.000000 0.012835 0.000000
									}
								}
								JOINT Ohr_R
								{
									OFFSET -0.036475 -0.085229 -0.040037
									CHANNELS 6 Xposition Yposition Zposition Xrotation Yrotation Zrotation
									End Site
									{
										OFFSET 0.000000 0.012835 0.000000
									}
								}
								JOINT Braun_O_L
								{
									OFFSET 0.036984 -0.061266 -0.083330
									CHANNELS 6 Xposition Yposition Zposition Xrotation Yrotation Zrotation
									End Site
									{
										OFFSET 0.000000 0.012835 0.000000
									}
								}
								JOINT Braun_O_R
								{
									OFFSET -0.036984 -0.061266 -0.083330
									CHANNELS 6 Xposition Yposition Zposition Xrotation Yrotation Zrotation
									End Site
									{
										OFFSET 0.000000 0.012835 0.000000
									}
								}
								JOINT aug_lied_O_L
								{
									OFFSET 0.032663 -0.047002 -0.094051
									CHANNELS 6 Xposition Yposition Zposition Xrotation Yrotation Zrotation
									End Site
									{
										OFFSET 0.000000 0.012835 0.000000
									}
								}
								JOINT aug_lied_O_R
								{
									OFFSET -0.032663 -0.047002 -0.094051
									CHANNELS 6 Xposition Yposition Zposition Xrotation Yrotation Zrotation
									End Site
									{
										OFFSET 0.000000 0.012835 0.000000
									}
								}
								JOINT aug_lied_U_L
								{
									OFFSET 0.033082 -0.043917 -0.093256
									CHANNELS 6 Xposition Yposition Zposition Xrotation Yrotation Zrotation
									End Site
									{
										OFFSET 0.000000 0.012835 0.000000
									}
								}
								JOINT aug_lied_U_R
								{
									OFFSET -0.033082 -0.043917 -0.093256
									CHANNELS 6 Xposition Yposition Zposition Xrotation Yrotation Zrotation
									End Site
									{
										OFFSET 0.000000 0.012835 0.000000
									}
								}
							}
						}
					}
					JOINT Bauch.003
					{
						OFFSET -0.000000 -0.100000 -0.100000
						CHANNELS 6 Xposition Yposition Zposition Xrotation Yrotation Zrotation
						JOINT Schalterplatte_L
						{
							OFFSET 0.038208 0.078706 0.042097
							CHANNELS 6 Xposition Yposition Zposition Xrotation Yrotation Zrotation
							JOINT Oberarm_L
							{
								OFFSET 0.028512 0.101909 -0.094482
								CHANNELS 6 Xposition Yposition Zposition Xrotation Yrotation Zrotation
								JOINT Unterarm_L
								{
									OFFSET 0.003153 0.177186 0.098653
									CHANNELS 6 Xposition Yposition Zposition Xrotation Yrotation Zrotation
									JOINT Vorderpfote_L
									{
										OFFSET 0.002604 0.168049 -0.029246
										CHANNELS 6 Xposition Yposition Zposition Xrotation Yrotation Zrotation
										End Site
										{
											OFFSET 0.000000 0.012835 0.000000
										}
									}
								}
							}
						}
						JOINT Schalterplatte_R
						{
							OFFSET -0.038208 0.078706 0.042097
							CHANNELS 6 Xposition Yposition Zposition Xrotation Yrotation Zrotation
							JOINT Oberarm_R
							{
								OFFSET -0.028512 0.101909 -0.094482
								CHANNELS 6 Xposition Yposition Zposition Xrotation Yrotation Zrotation
								JOINT Unterarm_R
								{
									OFFSET -0.003153 0.177186 0.098653
									CHANNELS 6 Xposition Yposition Zposition Xrotation Yrotation Zrotation
									JOINT Vorderpfote_R
									{
										OFFSET -0.002604 0.168048 -0.029246
										CHANNELS 6 Xposition Yposition Zposition Xrotation Yrotation Zrotation
										End Site
										{
											OFFSET 0.000000 0.012835 0.000000
										}
									}
								}
							}
						}
					}
				}
			}
		}
		JOINT Schwanz
		{
			OFFSET -0.000000 0.011779 0.005099
			CHANNELS 6 Xposition Yposition Zposition Xrotation Yrotation Zrotation
			JOINT Schwanz.001
			{
				OFFSET 0.000000 0.031697 0.085347
				CHANNELS 6 Xposition Yposition Zposition Xrotation Yrotation Zrotation
				JOINT Schwanz.002
				{
					OFFSET 0.000000 0.017390 0.076608
					CHANNELS 6 Xposition Yposition Zposition Xrotation Yrotation Zrotation
					JOINT Schwanz.003
					{
						OFFSET 0.000000 -0.001496 0.083490
						CHANNELS 6 Xposition Yposition Zposition Xrotation Yrotation Zrotation
						End Site
						{
							OFFSET 0.000000 0.012835 0.000000
						}
					}
				}
			}
		}
		JOINT Oberschenkel_L
		{
			OFFSET 0.058370 0.021529 -0.051166
			CHANNELS 6 Xposition Yposition Zposition Xrotation Yrotation Zrotation
			JOINT Unterschenkel_L
			{
				OFFSET 0.014913 0.167488 -0.012892
				CHANNELS 6 Xposition Yposition Zposition Xrotation Yrotation Zrotation
				JOINT Pfote1_L
				{
					OFFSET -0.002217 0.099301 0.065703
					CHANNELS 6 Xposition Yposition Zposition Xrotation Yrotation Zrotation
					JOINT Pfote2_L
					{
						OFFSET 0.007647 0.098465 0.000448
						CHANNELS 6 Xposition Yposition Zposition Xrotation Yrotation Zrotation
						End Site
						{
							OFFSET 0.000000 0.012835 0.000000
						}
					}
				}
			}
		}
		JOINT Oberschenkel_R
		{
			OFFSET -0.058370 0.021529 -0.051166
			CHANNELS 6 Xposition Yposition Zposition Xrotation Yrotation Zrotation
			JOINT Unterschenkel_R
			{
				OFFSET -0.014913 0.167489 -0.012892
				CHANNELS 6 Xposition Yposition Zposition Xrotation Yrotation Zrotation
				JOINT Pfote1_R
				{
					OFFSET 0.002217 0.099301 0.065703
					CHANNELS 6 Xposition Yposition Zposition Xrotation Yrotation Zrotation
					JOINT Pfote2_R
					{
						OFFSET -0.007647 0.098465 0.000449
						CHANNELS 6 Xposition Yposition Zposition Xrotation Yrotation Zrotation
						End Site
						{
							OFFSET 0.000000 0.012835 0.000000
						}
					}
				}
			}
		}
	}
	JOINT root
	{
		OFFSET 0.000000 0.000000 0.000000
		CHANNELS 6 Xposition Yposition Zposition Xrotation Yrotation Zrotation
		End Site
		{
			OFFSET 0.000000 0.500000 0.000000
		}
	}
}
MOTION
Frames: 4
Frame Time: 0.041667
-0.010379 -0.199411 -0.405691 90.005911 1.970207 -0.343990 0.000000 -0.017287 -0.099054 -0.000002 -0.000000 0.000000 -0.000000 -0.003352 -0.108138 -0.000000 0.000000 -0.000000 0.000000 0.036776 -0.131789 4.641123 -0.000001 0.000036 -0.000000 0.015220 -0.138891 -0.000001 0.000000 -0.000000 -0.000010 -0.126784 -0.071646 3.232390 -0.001753 -0.007510 0.000000 -0.027901 0.050422 -10.000015 -0.000002 0.000000 -0.000407 0.019282 -0.073044 -0.000005 0.000000 -0.000001 0.000407 0.030854 -0.009642 -0.000001 0.000004 -0.000002 0.000407 -0.001227 -0.014618 -0.000000 0.000002 0.000000 -0.000000 0.010422 -0.098884 -0.000000 0.000003 -0.000000 0.036228 0.015181 -0.075523 -0.000001 0.000005 -0.000004 -0.036228 0.015181 -0.075523 -0.000004 0.000010 0.000003 0.007960 -0.044795 -0.094639 -0.290571 -1.343326 4.632268 -0.007956 -0.044797 -0.094639 -0.290692 1.343335 -4.630290 0.036475 -0.085229 -0.040038 0.000001 0.000002 -0.000009 -0.036475 -0.085229 -0.040038 0.000006 0.000000 0.000001 0.036984 -0.061266 -0.083330 -0.000005 0.000009 -0.000002 -0.036984 -0.061266 -0.083330 0.000006 0.000002 -0.000006 0.032663 -0.047002 -0.094051 -0.000004 -0.000003 -0.000001 -0.032663 -0.047002 -0.094051 -0.000009 0.000003 0.000008 0.033082 -0.043917 -0.093256 0.000003 0.000006 -0.000004 -0.033082 -0.043917 -0.093256 -0.000001 0.000009 0.000003 -0.000000 -0.100000 -0.100000 -0.000001 0.000000 -0.000000 0.038372 -0.089906 0.138795 -16.554340 -0.608076 -1.178225 0.024157 0.058518 -0.085812 -4.115656 0.346126 -0.394915 -0.001481 0.118413 0.107577 -10.243861 0.783521 -0.252683 0.003241 0.234611 0.067077 25.790892 0.013552 -0.220772 -0.037566 0.096527 0.035025 -0.901916 -0.537339 -0.497396 0.019030 0.227291 -0.100032 11.735304 -4.472086 0.070478 0.010972 0.132396 0.104752 -7.785700 -2.376029 0.984535 -0.004702 0.143480 -0.049133 -6.905753 -0.042275 0.725159 0.000000 0.043133 0.416124 -37.312565 -0.000000 0.000006 0.000000 0.033608 0.224082 -11.940398 -0.000000 -0.000000 -0.000000 0.019121 0.103190 -2.107418 -0.000000 0.000000 -0.000000 0.036710 0.239239 -11.268529 -0.000000 -0.000000 0.072562 0.116980 -0.197459 16.716319 0.035850 1.508001 0.023079 0.171195 -0.029764 2.561717 3.701353 1.991920 0.003863 0.086636 -0.005461 12.046873 0.608022 0.877567 -0.026076 0.060143 -0.062048 13.493959 -9.284986 -0.575393 -0.041025 -0.041296 0.136539 -18.819671 -0.479417 1.628095 -0.023580 0.191485 -0.090724 12.123124 -11.307981 -3.569303 0.002896 0.104201 0.081227 -2.709041 -0.291729 0.202264 0.036310 0.071947 -0.042796 8.893689 12.237578 0.675874 0.000000 0.000000 0.000000 -0.000000 0.000000 -0.000000 
-0.010264 -0.199681 -0.405692 90.005788 1.948496 -0.340196 0.000000 -0.017287 -0.099054 -0.000002 -0.000000 -0.000000 -0.000000 -0.003352 -0.108138 0.000000 0.000000 0.000000 0.000000 0.035691 -0.131233 4.530307 -0.000001 0.000041 -0.000000 0.015220 -0.138891 0.000001 0.000000 -0.000000 -0.000010 -0.126784 -0.071646 3.232385 -0.001752 -0.007510 0.000000 -0.025127 0.049279 -9.778570 -0.000002 0.000001 -0.000407 0.019282 -0.073044 -0.000004 0.000000 -0.000001 0.000407 0.030854 -0.009642 -0.000001 0.000004 -0.000002 0.000407 -0.001227 -0.014618 -0.000003 0.000002 0.000000 -0.000000 0.010422 -0.098884 0.000003 0.000003 -0.000000 0.036228 0.015181 -0.075523 -0.000000 0.000009 -0.000002 -0.036228 0.015181 -0.075523 -0.000001 0.000009 0.000002 0.007958 -0.044796 -0.094639 -0.290613 -1.343317 4.632267 -0.007956 -0.044797 -0.094639 -0.290685 1.343336 -4.630289 0.036475 -0.085229 -0.040038 0.000000 0.000002 -0.000009 -0.036475 -0.085229 -0.040038 0.000008 0.000000 0.000003 0.036984 -0.061266 -0.083330 -0.000005 0.000002 0.000002 -0.036984 -0.061266 -0.083330 0.000005 -0.000004 -0.000002 0.032663 -0.047002 -0.094051 -0.000005 -0.000003 0.000006 -0.032663 -0.047002 -0.094051 -0.000006 0.000008 0.000001 0.033082 -0.043917 -0.093256 0.000004 0.000006 -0.000004 -0.033082 -0.043917 -0.093256 0.000005 0.000003 0.000009 -0.000000 -0.100000 -0.100000 -0.000001 0.000000 -0.000000 0.038163 -0.087364 0.136771 -16.273554 -0.578856 -1.158209 0.024128 0.059795 -0.086112 -3.993723 0.347433 -0.404095 -0.001505 0.119049 0.107423 -10.131213 0.787421 -0.258989 0.003246 0.233512 0.064365 25.151723 0.013245 -0.222342 -0.038009 0.093377 0.036668 -1.146279 -0.408401 -0.324562 0.019658 0.236431 -0.099518 12.589916 -4.521015 0.134316 0.011470 0.128337 0.105609 -8.499979 -2.461790 0.988726 -0.005526 0.148544 -0.045412 -5.533941 0.154114 0.776891 0.000000 0.042086 0.414002 -37.101116 -0.000000 0.000007 0.000000 0.034011 0.227411 -12.228406 -0.000000 -0.000000 -0.000000 0.019345 0.105816 -2.315938 -0.000000 -0.000000 -0.000000 0.036188 0.237754 -11.158136 -0.000000 -0.000000 0.071919 0.111140 -0.190529 15.905018 0.023957 1.435496 0.022994 0.173740 -0.039810 4.161812 3.786583 1.994891 0.003635 0.086845 -0.002651 11.578367 0.580997 0.845929 -0.026027 0.061618 -0.059055 12.861042 -9.280164 -0.567118 -0.041227 -0.040843 0.134308 -18.602288 -0.470870 1.610346 -0.023624 0.191111 -0.089854 11.977789 -11.267952 -3.568306 0.002892 0.104167 0.081126 -2.691293 -0.289787 0.200982 0.036391 0.072191 -0.042403 8.803045 12.219236 0.711658 0.000000 0.000000 0.000000 -0.000000 0.000000 -0.000000 
-0.009919 -0.200493 -0.405694 90.005405 1.882870 -0.328730 0.000000 -0.017287 -0.099054 -0.000007 0.000000 0.000000 -0.000000 -0.003352 -0.108138 0.000000 0.000000 -0.000000 0.000000 0.032431 -0.129545 4.196781 -0.000000 0.000038 -0.000000 0.015220 -0.138891 0.000001 0.000000 -0.000000 -0.000010 -0.126784 -0.071646 3.232385 -0.001752 -0.007510 0.000000 -0.016753 0.045904 -9.111921 -0.000002 0.000000 -0.000407 0.019282 -0.073044 -0.000005 0.000000 -0.000001 0.000407 0.030854 -0.009642 -0.000001 0.000004 -0.000002 0.000407 -0.001227 -0.014618 -0.000000 0.000003 0.000000 -0.000000 0.010422 -0.098884 0.000003 0.000003 -0.000000 0.036228 0.015181 -0.075523 -0.000001 0.000009 -0.000001 -0.036228 0.015181 -0.075523 0.000000 0.000014 0.000008 0.007959 -0.044795 -0.094639 -0.290571 -1.343329 4.632271 -0.007956 -0.044797 -0.094639 -0.290675 1.343333 -4.630295 0.036475 -0.085229 -0.040038 0.000001 0.000003 -0.000008 -0.036475 -0.085229 -0.040038 0.000006 0.000000 0.000001 0.036984 -0.061266 -0.083330 -0.000002 0.000005 0.000001 -0.036984 -0.061266 -0.083330 0.000007 -0.000003 -0.000002 0.032663 -0.047002 -0.094051 -0.000009 -0.000001 -0.000005 -0.032663 -0.047002 -0.094051 -0.000009 0.000003 -0.000000 0.033082 -0.043917 -0.093256 0.000005 0.000011 -0.000005 -0.033082 -0.043917 -0.093256 -0.000001 0.000011 0.000002 -0.000000 -0.100000 -0.100000 -0.000001 0.000000 -0.000000 0.037505 -0.079539 0.130678 -15.417489 -0.488119 -1.097975 0.024057 0.063626 -0.086999 -3.627995 0.350044 -0.429207 -0.001565 0.121070 0.106941 -9.773661 0.796699 -0.276389 0.003262 0.230031 0.056302 23.233389 0.012348 -0.226387 -0.039271 0.083003 0.042151 -1.970064 -0.022412 0.204756 0.021596 0.263886 -0.097142 15.163088 -4.672865 0.327555 0.013022 0.116106 0.108522 -10.665313 -2.729318 0.992289 -0.007971 0.163895 -0.032893 -1.211837 0.769523 0.895786 0.000000 0.038985 0.407595 -36.464549 0.000000 0.000006 -0.000000 0.035325 0.237420 -13.095632 0.000001 0.000000 -0.000000 0.020079 0.113717 -2.943675 -0.000000 -0.000000 -0.000000 0.034636 0.233280 -10.825876 -0.000000 -0.000000 0.069845 0.093334 -0.168130 13.331245 -0.006954 1.204489 0.022658 0.183140 -0.069730 9.005577 4.059316 1.994280 0.002974 0.087578 0.005439 10.227704 0.504546 0.753491 -0.025849 0.066214 -0.050220 10.972450 -9.276365 -0.525808 -0.041861 -0.039387 0.127318 -17.920700 -0.444513 1.554482 -0.023746 0.189982 -0.087187 11.533847 -11.147501 -3.563402 0.002880 0.104069 0.080841 -2.641204 -0.284304 0.197367 0.036649 0.072978 -0.041144 8.512659 12.163507 0.823265 0.000000 0.000000 0.000000 -0.000000 0.000000 -0.000000 
-0.009341 -0.201812 -0.405697 90.004784 1.773131 -0.309558 0.000000 -0.017287 -0.099054 -0.000002 -0.000000 0.000000 -0.000000 -0.003352 -0.108138 -0.000000 0.000000 0.000000 0.000000 0.027150 -0.126758 3.654402 -0.000000 0.000035 -0.000000 0.015220 -0.138891 0.000004 0.000000 -0.000000 -0.000010 -0.126784 -0.071646 3.232389 -0.001752 -0.007510 0.000000 -0.003046 0.040623 -8.027433 -0.000002 0.000001 -0.000407 0.019282 -0.073044 -0.000005 -0.000000 -0.000001 0.000407 0.030854 -0.009642 -0.000001 0.000003 -0.000002 0.000407 -0.001227 -0.014618 -0.000001 0.000002 0.000000 -0.000000 0.010422 -0.098884 -0.000003 0.000003 -0.000000 0.036228 0.015181 -0.075523 -0.000004 0.000003 -0.000005 -0.036228 0.015181 -0.075523 -0.000006 0.000009 0.000004 0.007959 -0.044795 -0.094639 -0.290583 -1.343327 4.632268 -0.007956 -0.044798 -0.094639 -0.290734 1.343321 -4.630297 0.036475 -0.085229 -0.040038 0.000000 0.000003 -0.000009 -0.036475 -0.085229 -0.040038 0.000006 -0.000003 0.000001 0.036984 -0.061266 -0.083330 -0.000005 0.000002 0.000002 -0.036984 -0.061266 -0.083330 0.000010 -0.000004 -0.000009 0.032663 -0.047002 -0.094051 -0.000004 -0.000001 0.000003 -0.032663 -0.047002 -0.094051 -0.000011 0.000013 0.000002 0.033082 -0.043917 -0.093256 0.000002 0.000005 -0.000005 -0.033082 -0.043917 -0.093256 -0.000002 0.000010 0.000003 -0.000000 -0.100000 -0.100000 -0.000001 0.000000 -0.000000 0.036381 -0.066070 0.120622 -13.970112 -0.333978 -0.997211 0.023949 0.069306 -0.088266 -3.086879 0.354126 -0.466635 -0.001624 0.124701 0.106108 -9.132444 0.805098 -0.303505 0.003283 0.223878 0.043603 20.150865 0.010732 -0.231344 -0.041064 0.064747 0.052145 -3.458663 0.577560 1.058218 0.024621 0.306042 -0.091037 19.142324 -4.906173 0.651962 0.015639 0.097641 0.113892 -13.977986 -3.182458 0.970514 -0.011768 0.189456 -0.006976 6.728188 1.847709 0.946517 0.000000 0.034100 0.397114 -35.429065 -0.000000 0.000006 0.000000 0.037788 0.253663 -14.506929 0.000001 0.000000 0.000000 0.021456 0.126551 -3.964791 0.000001 0.000000 -0.000000 0.032166 0.225985 -10.285563 -0.000000 -0.000000 0.066742 0.068903 -0.134164 9.594642 -0.033301 0.867200 0.022188 0.199686 -0.108477 15.512674 4.487782 2.002713 0.002096 0.088833 0.016038 8.452848 0.407444 0.629352 -0.025874 0.073148 -0.038150 8.325838 -9.310994 -0.503278 -0.042961 -0.036721 0.115204 -16.737986 -0.400365 1.456823 -0.023933 0.188079 -0.082555 10.766434 -10.946775 -3.552908 0.002858 0.103889 0.080310 -2.547836 -0.274098 0.190611 0.037088 0.074385 -0.038922 7.999167 12.067600 1.013797 0.000000 0.000000 0.000000 -0.000000 0.000000 -0.000000 
